<?xml version="1.0" encoding="UTF-8" standalone="no"?>
<!DOCTYPE svg PUBLIC "-//W3C//DTD SVG 1.1//EN"
 "http://www.w3.org/Graphics/SVG/1.1/DTD/svg11.dtd">
<!-- Generated by graphviz version 2.38.0 (20140413.2041)
 -->
<!-- Title: %3 Pages: 1 -->
<svg width="838pt" height="620pt"
 viewBox="0.00 0.00 838.23 620.00" xmlns="http://www.w3.org/2000/svg" xmlns:xlink="http://www.w3.org/1999/xlink">
<g id="graph0" class="graph" transform="scale(1 1) rotate(0) translate(4 616)">
<title>%3</title>
<polygon fill="white" stroke="none" points="-4,4 -4,-616 834.228,-616 834.228,4 -4,4"/>
<!-- [root] azurerm_network_interface.mynic -->
<g id="node1" class="node"><title>[root] azurerm_network_interface.mynic</title>
<polygon fill="none" stroke="black" points="491.886,-396 228.886,-396 228.886,-360 491.886,-360 491.886,-396"/>
<text text-anchor="middle" x="360.386" y="-374.3" font-family="Times,serif" font-size="14.00">azurerm_network_interface.mynic</text>
</g>
<!-- [root] azurerm_subnet.mysub -->
<g id="node4" class="node"><title>[root] azurerm_subnet.mysub</title>
<polygon fill="none" stroke="black" points="429.886,-324 244.886,-324 244.886,-288 429.886,-288 429.886,-324"/>
<text text-anchor="middle" x="337.386" y="-302.3" font-family="Times,serif" font-size="14.00">azurerm_subnet.mysub</text>
</g>
<!-- [root] azurerm_network_interface.mynic&#45;&gt;[root] azurerm_subnet.mysub -->
<g id="edge1" class="edge"><title>[root] azurerm_network_interface.mynic&#45;&gt;[root] azurerm_subnet.mysub</title>
<path fill="none" stroke="black" d="M354.701,-359.697C352.139,-351.898 349.053,-342.509 346.202,-333.829"/>
<polygon fill="black" stroke="black" points="349.453,-332.512 343.006,-324.104 342.803,-334.697 349.453,-332.512"/>
</g>
<!-- [root] azurerm_public_ip.myip -->
<g id="node2" class="node"><title>[root] azurerm_public_ip.myip</title>
<polygon fill="none" stroke="black" points="247.886,-468 58.8864,-468 58.8864,-432 247.886,-432 247.886,-468"/>
<text text-anchor="middle" x="153.386" y="-446.3" font-family="Times,serif" font-size="14.00">azurerm_public_ip.myip</text>
</g>
<!-- [root] azurerm_resource_group.thegroup -->
<g id="node3" class="node"><title>[root] azurerm_resource_group.thegroup</title>
<polygon fill="none" stroke="black" points="471.386,-180 205.386,-180 205.386,-144 471.386,-144 471.386,-180"/>
<text text-anchor="middle" x="338.386" y="-158.3" font-family="Times,serif" font-size="14.00">azurerm_resource_group.thegroup</text>
</g>
<!-- [root] azurerm_public_ip.myip&#45;&gt;[root] azurerm_resource_group.thegroup -->
<g id="edge2" class="edge"><title>[root] azurerm_public_ip.myip&#45;&gt;[root] azurerm_resource_group.thegroup</title>
<path fill="none" stroke="black" d="M152.053,-431.72C149.766,-389.56 149.79,-280.189 204.386,-216 216.285,-202.011 232.377,-191.687 249.28,-184.076"/>
<polygon fill="black" stroke="black" points="250.859,-187.21 258.733,-180.121 248.157,-180.752 250.859,-187.21"/>
</g>
<!-- [root] provider.azurerm -->
<g id="node7" class="node"><title>[root] provider.azurerm</title>
<polygon fill="none" stroke="black" points="338.386,-108 209.522,-90 338.386,-72 467.251,-90 338.386,-108"/>
<text text-anchor="middle" x="338.386" y="-86.3" font-family="Times,serif" font-size="14.00">provider.azurerm</text>
</g>
<!-- [root] azurerm_resource_group.thegroup&#45;&gt;[root] provider.azurerm -->
<g id="edge3" class="edge"><title>[root] azurerm_resource_group.thegroup&#45;&gt;[root] provider.azurerm</title>
<path fill="none" stroke="black" d="M338.386,-143.697C338.386,-135.983 338.386,-126.712 338.386,-118.112"/>
<polygon fill="black" stroke="black" points="341.886,-118.104 338.386,-108.104 334.886,-118.104 341.886,-118.104"/>
</g>
<!-- [root] var.location -->
<g id="node8" class="node"><title>[root] var.location</title>
<ellipse fill="none" stroke="black" cx="578.386" cy="-90" rx="93.6835" ry="18"/>
<text text-anchor="middle" x="578.386" y="-86.3" font-family="Times,serif" font-size="14.00">[root] var.location</text>
</g>
<!-- [root] azurerm_resource_group.thegroup&#45;&gt;[root] var.location -->
<g id="edge4" class="edge"><title>[root] azurerm_resource_group.thegroup&#45;&gt;[root] var.location</title>
<path fill="none" stroke="black" d="M396.79,-143.966C433.982,-133.118 482.004,-119.111 519.323,-108.227"/>
<polygon fill="black" stroke="black" points="520.436,-111.548 529.056,-105.388 518.476,-104.828 520.436,-111.548"/>
</g>
<!-- [root] var.rg -->
<g id="node9" class="node"><title>[root] var.rg</title>
<ellipse fill="none" stroke="black" cx="124.386" cy="-90" rx="66.8882" ry="18"/>
<text text-anchor="middle" x="124.386" y="-86.3" font-family="Times,serif" font-size="14.00">[root] var.rg</text>
</g>
<!-- [root] azurerm_resource_group.thegroup&#45;&gt;[root] var.rg -->
<g id="edge5" class="edge"><title>[root] azurerm_resource_group.thegroup&#45;&gt;[root] var.rg</title>
<path fill="none" stroke="black" d="M286.31,-143.966C252.416,-132.879 208.434,-118.492 174.864,-107.511"/>
<polygon fill="black" stroke="black" points="175.84,-104.148 165.247,-104.366 173.663,-110.801 175.84,-104.148"/>
</g>
<!-- [root] azurerm_virtual_network.mynet -->
<g id="node6" class="node"><title>[root] azurerm_virtual_network.mynet</title>
<polygon fill="none" stroke="black" points="461.386,-252 213.386,-252 213.386,-216 461.386,-216 461.386,-252"/>
<text text-anchor="middle" x="337.386" y="-230.3" font-family="Times,serif" font-size="14.00">azurerm_virtual_network.mynet</text>
</g>
<!-- [root] azurerm_subnet.mysub&#45;&gt;[root] azurerm_virtual_network.mynet -->
<g id="edge6" class="edge"><title>[root] azurerm_subnet.mysub&#45;&gt;[root] azurerm_virtual_network.mynet</title>
<path fill="none" stroke="black" d="M337.386,-287.697C337.386,-279.983 337.386,-270.712 337.386,-262.112"/>
<polygon fill="black" stroke="black" points="340.886,-262.104 337.386,-252.104 333.886,-262.104 340.886,-262.104"/>
</g>
<!-- [root] azurerm_virtual_machine.myvm -->
<g id="node5" class="node"><title>[root] azurerm_virtual_machine.myvm</title>
<polygon fill="none" stroke="black" points="514.386,-468 266.386,-468 266.386,-432 514.386,-432 514.386,-468"/>
<text text-anchor="middle" x="390.386" y="-446.3" font-family="Times,serif" font-size="14.00">azurerm_virtual_machine.myvm</text>
</g>
<!-- [root] azurerm_virtual_machine.myvm&#45;&gt;[root] azurerm_network_interface.mynic -->
<g id="edge7" class="edge"><title>[root] azurerm_virtual_machine.myvm&#45;&gt;[root] azurerm_network_interface.mynic</title>
<path fill="none" stroke="black" d="M382.971,-431.697C379.592,-423.813 375.517,-414.304 371.763,-405.546"/>
<polygon fill="black" stroke="black" points="374.873,-403.917 367.717,-396.104 368.439,-406.675 374.873,-403.917"/>
</g>
<!-- [root] azurerm_virtual_network.mynet&#45;&gt;[root] azurerm_resource_group.thegroup -->
<g id="edge8" class="edge"><title>[root] azurerm_virtual_network.mynet&#45;&gt;[root] azurerm_resource_group.thegroup</title>
<path fill="none" stroke="black" d="M337.634,-215.697C337.744,-207.983 337.876,-198.712 337.999,-190.112"/>
<polygon fill="black" stroke="black" points="341.499,-190.153 338.142,-180.104 334.499,-190.053 341.499,-190.153"/>
</g>
<!-- [root] var.appid -->
<g id="node14" class="node"><title>[root] var.appid</title>
<ellipse fill="none" stroke="black" cx="732.386" cy="-18" rx="82.5854" ry="18"/>
<text text-anchor="middle" x="732.386" y="-14.3" font-family="Times,serif" font-size="14.00">[root] var.appid</text>
</g>
<!-- [root] provider.azurerm&#45;&gt;[root] var.appid -->
<g id="edge18" class="edge"><title>[root] provider.azurerm&#45;&gt;[root] var.appid</title>
<path fill="none" stroke="black" d="M392.97,-79.5728C453.475,-69.0874 553.945,-51.5712 640.386,-36 647.153,-34.7811 654.197,-33.5006 661.241,-32.2121"/>
<polygon fill="black" stroke="black" points="662.327,-35.5715 671.531,-30.3248 661.064,-28.6863 662.327,-35.5715"/>
</g>
<!-- [root] var.password -->
<g id="node16" class="node"><title>[root] var.password</title>
<ellipse fill="none" stroke="black" cx="338.386" cy="-18" rx="100.983" ry="18"/>
<text text-anchor="middle" x="338.386" y="-14.3" font-family="Times,serif" font-size="14.00">[root] var.password</text>
</g>
<!-- [root] provider.azurerm&#45;&gt;[root] var.password -->
<g id="edge19" class="edge"><title>[root] provider.azurerm&#45;&gt;[root] var.password</title>
<path fill="none" stroke="black" d="M338.386,-71.6966C338.386,-63.9827 338.386,-54.7125 338.386,-46.1124"/>
<polygon fill="black" stroke="black" points="341.886,-46.1043 338.386,-36.1043 334.886,-46.1044 341.886,-46.1043"/>
</g>
<!-- [root] var.sub_id -->
<g id="node17" class="node"><title>[root] var.sub_id</title>
<ellipse fill="none" stroke="black" cx="544.386" cy="-18" rx="87.1846" ry="18"/>
<text text-anchor="middle" x="544.386" y="-14.3" font-family="Times,serif" font-size="14.00">[root] var.sub_id</text>
</g>
<!-- [root] provider.azurerm&#45;&gt;[root] var.sub_id -->
<g id="edge20" class="edge"><title>[root] provider.azurerm&#45;&gt;[root] var.sub_id</title>
<path fill="none" stroke="black" d="M374.269,-76.8069C406.649,-65.8039 454.704,-49.4745 491.489,-36.9749"/>
<polygon fill="black" stroke="black" points="492.719,-40.2536 501.061,-33.7223 490.466,-33.6258 492.719,-40.2536"/>
</g>
<!-- [root] var.tenant -->
<g id="node18" class="node"><title>[root] var.tenant</title>
<ellipse fill="none" stroke="black" cx="132.386" cy="-18" rx="87.1846" ry="18"/>
<text text-anchor="middle" x="132.386" y="-14.3" font-family="Times,serif" font-size="14.00">[root] var.tenant</text>
</g>
<!-- [root] provider.azurerm&#45;&gt;[root] var.tenant -->
<g id="edge21" class="edge"><title>[root] provider.azurerm&#45;&gt;[root] var.tenant</title>
<path fill="none" stroke="black" d="M302.504,-76.8069C270.124,-65.8039 222.068,-49.4745 185.284,-36.9749"/>
<polygon fill="black" stroke="black" points="186.306,-33.6258 175.712,-33.7223 184.054,-40.2536 186.306,-33.6258"/>
</g>
<!-- [root] meta.count&#45;boundary (count boundary fixup) -->
<g id="node10" class="node"><title>[root] meta.count&#45;boundary (count boundary fixup)</title>
<ellipse fill="none" stroke="black" cx="572.386" cy="-522" rx="247.756" ry="18"/>
<text text-anchor="middle" x="572.386" y="-518.3" font-family="Times,serif" font-size="14.00">[root] meta.count&#45;boundary (count boundary fixup)</text>
</g>
<!-- [root] meta.count&#45;boundary (count boundary fixup)&#45;&gt;[root] azurerm_public_ip.myip -->
<g id="edge9" class="edge"><title>[root] meta.count&#45;boundary (count boundary fixup)&#45;&gt;[root] azurerm_public_ip.myip</title>
<path fill="none" stroke="black" d="M478.615,-505.334C413.221,-494.409 325.903,-479.821 258.209,-468.512"/>
<polygon fill="black" stroke="black" points="258.384,-464.993 247.944,-466.797 257.231,-471.897 258.384,-464.993"/>
</g>
<!-- [root] meta.count&#45;boundary (count boundary fixup)&#45;&gt;[root] azurerm_virtual_machine.myvm -->
<g id="edge10" class="edge"><title>[root] meta.count&#45;boundary (count boundary fixup)&#45;&gt;[root] azurerm_virtual_machine.myvm</title>
<path fill="none" stroke="black" d="M528.793,-504.233C503.505,-494.507 471.44,-482.174 444.542,-471.829"/>
<polygon fill="black" stroke="black" points="445.478,-468.439 434.889,-468.116 442.966,-474.973 445.478,-468.439"/>
</g>
<!-- [root] output.more -->
<g id="node11" class="node"><title>[root] output.more</title>
<ellipse fill="none" stroke="black" cx="733.386" cy="-378" rx="96.6831" ry="18"/>
<text text-anchor="middle" x="733.386" y="-374.3" font-family="Times,serif" font-size="14.00">[root] output.more</text>
</g>
<!-- [root] meta.count&#45;boundary (count boundary fixup)&#45;&gt;[root] output.more -->
<g id="edge11" class="edge"><title>[root] meta.count&#45;boundary (count boundary fixup)&#45;&gt;[root] output.more</title>
<path fill="none" stroke="black" d="M657.487,-505.087C679.099,-497.231 700.412,-485.503 715.386,-468 729.913,-451.02 733.871,-425.557 734.511,-406.212"/>
<polygon fill="black" stroke="black" points="738.011,-406.207 734.571,-396.186 731.011,-406.165 738.011,-406.207"/>
</g>
<!-- [root] output.stuff -->
<g id="node12" class="node"><title>[root] output.stuff</title>
<ellipse fill="none" stroke="black" cx="542.386" cy="-306" rx="94.7833" ry="18"/>
<text text-anchor="middle" x="542.386" y="-302.3" font-family="Times,serif" font-size="14.00">[root] output.stuff</text>
</g>
<!-- [root] meta.count&#45;boundary (count boundary fixup)&#45;&gt;[root] output.stuff -->
<g id="edge12" class="edge"><title>[root] meta.count&#45;boundary (count boundary fixup)&#45;&gt;[root] output.stuff</title>
<path fill="none" stroke="black" d="M568.439,-503.885C566.151,-493.538 563.345,-480.059 561.386,-468 553.804,-421.326 547.99,-366.571 544.89,-334.445"/>
<polygon fill="black" stroke="black" points="548.372,-334.087 543.944,-324.461 541.403,-334.747 548.372,-334.087"/>
</g>
<!-- [root] var.yo -->
<g id="node13" class="node"><title>[root] var.yo</title>
<ellipse fill="none" stroke="black" cx="638.386" cy="-450" rx="67.6881" ry="18"/>
<text text-anchor="middle" x="638.386" y="-446.3" font-family="Times,serif" font-size="14.00">[root] var.yo</text>
</g>
<!-- [root] meta.count&#45;boundary (count boundary fixup)&#45;&gt;[root] var.yo -->
<g id="edge13" class="edge"><title>[root] meta.count&#45;boundary (count boundary fixup)&#45;&gt;[root] var.yo</title>
<path fill="none" stroke="black" d="M588.701,-503.697C596.813,-495.093 606.75,-484.554 615.6,-475.168"/>
<polygon fill="black" stroke="black" points="618.4,-477.299 622.714,-467.622 613.307,-472.497 618.4,-477.299"/>
</g>
<!-- [root] output.more&#45;&gt;[root] var.appid -->
<g id="edge14" class="edge"><title>[root] output.more&#45;&gt;[root] var.appid</title>
<path fill="none" stroke="black" d="M733.386,-359.951C733.386,-333.292 733.386,-280.115 733.386,-235 733.386,-235 733.386,-235 733.386,-161 733.386,-120.995 732.985,-74.6521 732.69,-46.0794"/>
<polygon fill="black" stroke="black" points="736.19,-46.0113 732.584,-36.049 729.19,-46.0856 736.19,-46.0113"/>
</g>
<!-- [root] output.stuff&#45;&gt;[root] azurerm_resource_group.thegroup -->
<g id="edge15" class="edge"><title>[root] output.stuff&#45;&gt;[root] azurerm_resource_group.thegroup</title>
<path fill="none" stroke="black" d="M532.452,-288.064C520.127,-268.351 497.403,-235.956 470.386,-216 451.955,-202.386 429.544,-191.678 408.458,-183.558"/>
<polygon fill="black" stroke="black" points="409.476,-180.202 398.883,-180.008 407.043,-186.766 409.476,-180.202"/>
</g>
<!-- [root] provider.azurerm (close) -->
<g id="node15" class="node"><title>[root] provider.azurerm (close)</title>
<ellipse fill="none" stroke="black" cx="153.386" cy="-522" rx="153.273" ry="18"/>
<text text-anchor="middle" x="153.386" y="-518.3" font-family="Times,serif" font-size="14.00">[root] provider.azurerm (close)</text>
</g>
<!-- [root] provider.azurerm (close)&#45;&gt;[root] azurerm_public_ip.myip -->
<g id="edge16" class="edge"><title>[root] provider.azurerm (close)&#45;&gt;[root] azurerm_public_ip.myip</title>
<path fill="none" stroke="black" d="M153.386,-503.697C153.386,-495.983 153.386,-486.712 153.386,-478.112"/>
<polygon fill="black" stroke="black" points="156.886,-478.104 153.386,-468.104 149.886,-478.104 156.886,-478.104"/>
</g>
<!-- [root] provider.azurerm (close)&#45;&gt;[root] azurerm_virtual_machine.myvm -->
<g id="edge17" class="edge"><title>[root] provider.azurerm (close)&#45;&gt;[root] azurerm_virtual_machine.myvm</title>
<path fill="none" stroke="black" d="M207.165,-505.116C241.516,-494.97 286.334,-481.733 323.045,-470.89"/>
<polygon fill="black" stroke="black" points="324.081,-474.234 332.68,-468.044 322.098,-467.52 324.081,-474.234"/>
</g>
<!-- [root] root -->
<g id="node19" class="node"><title>[root] root</title>
<ellipse fill="none" stroke="black" cx="362.386" cy="-594" rx="58.4896" ry="18"/>
<text text-anchor="middle" x="362.386" y="-590.3" font-family="Times,serif" font-size="14.00">[root] root</text>
</g>
<!-- [root] root&#45;&gt;[root] meta.count&#45;boundary (count boundary fixup) -->
<g id="edge22" class="edge"><title>[root] root&#45;&gt;[root] meta.count&#45;boundary (count boundary fixup)</title>
<path fill="none" stroke="black" d="M400.904,-580.161C432.075,-569.771 476.525,-554.954 512.359,-543.009"/>
<polygon fill="black" stroke="black" points="513.84,-546.205 522.22,-539.722 511.626,-539.564 513.84,-546.205"/>
</g>
<!-- [root] root&#45;&gt;[root] provider.azurerm (close) -->
<g id="edge23" class="edge"><title>[root] root&#45;&gt;[root] provider.azurerm (close)</title>
<path fill="none" stroke="black" d="M324.053,-580.161C292.599,-569.626 247.56,-554.541 211.647,-542.513"/>
<polygon fill="black" stroke="black" points="212.372,-539.065 201.778,-539.208 210.149,-545.703 212.372,-539.065"/>
</g>
</g>
</svg>
